# xmcd
#
# Track frame offsets:
# 182
# 13327
# 25815
# 36480
# 51807
# 63765
# 77722
# 89535
# 99032
# 111065
# 126762
# 138877
#
# Disc length: 2012 seconds
#
#
# Revision: 2
# Processed by: cddbd v1.5.2PL0 Copyright (c) Steve Scherf et al.
# Submitted via: FreeRIP 2.951 
#
DISCID=9407da0c
DTITLE=Zé do Rancho - Viola Enluarada
DYEAR=1900
DGENRE=
TTITLE0=Viola enluarada
TTITLE1=Pingo d'água
TTITLE2=De papo pro ar
TTITLE3=Luar do sertão
TTITLE4=A moda da mula preta
TTITLE5=Saudade de ouro preto
TTITLE6=Viola da moda
TTITLE7=Piracicaba
TTITLE8=Vida marvada
TTITLE9=Tristeza do jeca
TTITLE10=Marvada pinga
TTITLE11=Na serra da mantiqueira
EXTD=
EXTT0=
EXTT1=
EXTT2=
EXTT3=
EXTT4=
EXTT5=
EXTT6=
EXTT7=
EXTT8=
EXTT9=
EXTT10=
EXTT11=
PLAYORDER=
